<svg width="24" height="28" viewBox="0 0 24 28" fill="none" xmlns="http://www.w3.org/2000/svg">
<path fill-rule="evenodd" clip-rule="evenodd" d="M10.8781 14.6273C12.845 14.1547 13.7609 16.5836 11.7887 17.0862C9.77517 17.5987 8.74345 15.1392 10.8781 14.6273ZM9.92227 24.9911L9.96021 24.9598C10.1965 25.0384 10.6751 26.5906 12.3758 27.0499C14.595 27.6496 17.1616 26.4342 18.4995 24.3601C18.8829 23.7651 20.0797 21.635 19.064 21.2137C18.1754 20.8456 17.8239 22.9144 17.2621 23.7564C16.6591 24.6597 15.6127 25.3599 14.5657 25.6062C10.9979 26.4462 10.6165 23.363 10.6491 20.6406C12.4284 20.1074 14.354 17.8097 14.2369 15.8687C14.0918 13.4658 10.7437 12.7256 8.83597 13.1017C6.32124 13.5983 4.90013 15.3076 6.19344 17.8523C7.65116 20.7171 9.23401 20.1567 9.3059 20.9901C9.5655 23.9854 7.81357 27.3115 4.11203 25.0983C3.22075 24.5651 2.61171 23.7804 2.16773 22.8485C2.00266 22.5024 1.74639 21.5059 1.60062 21.3495C1.18194 20.9029 0.437771 21.2443 0.461734 21.9233C0.524968 23.7158 2.49189 26.0115 4.10603 26.6778C6.32922 27.5964 8.80868 27.3767 9.92227 24.9918V24.9911ZM14.1463 11.3245C13.6345 10.135 13.1392 8.95155 13.934 7.67421C14.6662 6.49805 16.0687 6.45612 17.1057 7.26352C19.277 8.95222 19.2743 13.1503 16.5333 12.9673C18.0356 12.4787 18.4875 10.8945 17.7806 9.50735L16.1612 10.7348L16.6997 8.64936C14.7913 8.17543 14.1017 9.7077 14.1463 11.3238V11.3245ZM14.9917 5.33853C10.0195 6.35029 12.3412 15.2357 17.2308 14.3684C22.1831 13.4898 19.9113 4.33743 14.9917 5.33853ZM4.30306 10.561L2.7415 9.3456C2.28289 9.82685 2.24361 10.7421 2.43531 11.3565C2.66362 12.088 2.9545 12.2843 3.52028 12.683C0.759269 12.4547 1.16131 8.89497 2.75681 7.25154C3.57553 6.40886 4.89347 6.08004 5.86395 6.8941C6.90699 7.7674 6.65405 9.23843 6.3878 10.372C5.95181 9.64646 6.06098 8.73456 4.74104 8.45832C3.27201 8.15147 3.92898 8.74987 4.30306 10.561ZM4.06676 5.03701C-1.09849 5.89167 -1.07653 14.9215 4.0834 14.0829C9.23002 13.2455 9.20672 4.187 4.06676 5.03701ZM13.4241 0.82759C12.6826 0.947402 12.5775 1.82137 13.0534 2.13821C13.536 2.45904 14.756 1.7821 16.04 3.69311C16.3555 4.16304 16.4887 4.90455 17.135 4.82401C18.9076 4.60302 16.0926 0.397595 13.4241 0.82759ZM5.02526 0.843565C3.88438 1.00797 2.94851 1.71687 2.28821 2.6341C0.677397 4.87659 2.29154 5.20341 2.74816 4.52581C3.37185 3.60059 3.70067 2.57885 5.00064 2.29263C5.53979 2.17415 6.51959 2.45638 6.47167 1.50054C6.43173 0.713768 5.59504 0.761693 5.0246 0.84423L5.02526 0.843565Z" fill="#222327"/>
</svg>
